<svg xmlns="http://www.w3.org/2000/svg" xmlns:xlink="http://www.w3.org/1999/xlink" width="612px" height="69.25px">#<path fill="#bdb289" stroke="rgba(0,0,0,0)" stroke-width="0" style="" d="M306 66.81c3.6-16.92 16.56-29.88 31.68-30.96.722 0 1.08-.72 1.44-1.438 0-.72-.72-1.44-1.08-1.44-15.84-.72-28.8-13.68-32.04-30.6 0-.72-.72-1.08-1.44-1.08s-1.08.36-1.44 1.08c-3.6 16.92-16.56 29.88-31.68 30.96-.72 0-1.08.72-1.08 1.438 0 .722.72 1.08 1.08 1.44 15.12 1.08 28.44 13.68 31.68 30.96 0 .72.72 1.08 1.44 1.08.72-.36 1.08-.72 1.44-1.44zm48.96-32.4c0 2.88 2.52 5.4 5.4 5.4s5.398-2.52 5.398-5.4c0-2.88-2.52-5.4-5.398-5.4-2.88.36-5.4 2.52-5.4 5.4zm25.92 0c0-2.16-1.8-3.96-3.96-3.96s-3.96 1.8-3.96 3.96c0 2.162 1.8 3.96 3.96 3.96 2.52 0 3.96-1.8 3.96-3.96zm-125.64 0c0-2.88-2.52-5.4-5.4-5.4-2.88 0-5.4 2.52-5.4 5.4 0 2.88 2.52 5.4 5.4 5.4 2.88 0 5.4-2.52 5.4-5.4zm-26.28 0c0 2.162 1.8 3.96 3.96 3.96s3.96-1.8 3.96-3.96-1.8-3.96-3.96-3.96c-2.16.362-3.96 2.16-3.96 3.96zm-14.04 0c0-2.16-1.8-3.96-3.96-3.96h-207C1.8 30.45 0 32.25 0 34.41c0 2.162 1.8 3.96 3.96 3.96H210.6c2.52.36 4.32-1.44 4.32-3.96zm181.08 0c0 2.162 1.8 3.96 3.96 3.96h207.72c2.16 0 3.96-1.8 3.96-3.96s-1.8-3.96-3.96-3.96H399.96c-2.16 0-3.96 1.8-3.96 3.96z" /></svg>