<?xml version="1.0" encoding="utf-8"?>
<!-- Generator: Adobe Illustrator 22.1.0, SVG Export Plug-In . SVG Version: 6.00 Build 0)  -->
<svg version="1.1" xmlns="http://www.w3.org/2000/svg" xmlns:xlink="http://www.w3.org/1999/xlink" x="0px" y="0px"
	 viewBox="0 0 203.8 224.4" style="enable-background:new 0 0 204 217.80001;" xml:space="preserve">
<style type="text/css">
	.st0{fill:#FFFFFF;}
	.st1{fill:#BDB289;}
</style>
<g id="Layer_1">
</g>
<g id="_x2014_ÎÓÈ_x5F_1">
	<path class="st0" d="M0,0l0,130h0c0.2,10.7,2.2,20.3,6.1,27.6c16.7,31.7,64.1,28.6,95.7,59.9c0.2,0.2,0.2,0.3,0.2,0.3
		s0-0.1,0.2-0.3c31.6-31.2,79-28.2,95.7-59.9c3.9-7.3,5.8-16.9,6.1-27.6V0H0z"/>
	<path class="st1" d="M200.8,3v127c-0.2,10.5-2.2,19.5-5.7,26.2c-8.4,16-25.2,22.6-44.6,30.3c-15.9,6.3-33.9,13.3-48.6,27
		c-14.7-13.7-32.7-20.8-48.6-27c-19.4-7.6-36.2-14.2-44.6-30.3C5.2,149.5,3.2,140.5,3,130c0-0.1,0-0.1,0-0.2L3,3H200.8 M203.8,0H0
		l0,130h0c0.2,10.7,2.2,20.3,6.1,27.6c16.7,31.7,64.1,28.6,95.7,59.9c0.2,0.2,0.2,0.2,0.2,0.2c0,0,0-0.1,0.2-0.2
		c31.6-31.2,79-28.2,95.7-59.9c3.9-7.3,5.8-16.9,6.1-27.6V0L203.8,0z M101.9,217.8C101.9,217.8,101.9,217.8,101.9,217.8
		C101.9,217.8,101.9,217.8,101.9,217.8L101.9,217.8z"/>
	<path class="st1" d="M110.5,182.2c-4.5,0.9-7.9,4.4-8.2,8.5c0,0.2-0.2,0.3-0.4,0.3c-0.2,0-0.3-0.1-0.3-0.3
		c-0.3-4.1-3.7-7.6-8.2-8.5c-0.2,0-0.3-0.2-0.3-0.4c0-0.2,0.1-0.3,0.3-0.3c4.6-0.9,7.9-4.4,8.2-8.5c0-0.2,0.2-0.3,0.4-0.3
		c0.2,0,0.3,0.1,0.3,0.3c0.3,4.1,3.7,7.6,8.2,8.5c0.2,0,0.3,0.2,0.3,0.3C110.8,182,110.7,182.1,110.5,182.2z"/>
</g>
</svg>
